<svg xmlns="http://www.w3.org/2000/svg" width="900" height="520" viewBox="0 0 900 520"><rect width="100%" height="100%" fill="white"/><style>text{font:13px sans-serif;fill:#25334a}.title{font-size:20px;font-weight:bold}</style><text x="65" y="30" class="title">Wh/km versus stop_count: operating periods</text><path d="M80 60V450H850" fill="none" stroke="#54657c"/><text x="65.00" y="472">0</text><text x="28" y="454.00">1.41</text><text x="219.00" y="472">2.8</text><text x="28" y="376.00">6.19</text><text x="373.00" y="472">5.6</text><text x="28" y="298.00">11</text><text x="527.00" y="472">8.4</text><text x="28" y="220.00">15.8</text><text x="681.00" y="472">11.2</text><text x="28" y="142.00">20.5</text><text x="835.00" y="472">14</text><text x="28" y="64.00">25.3</text><circle cx="135.00" cy="60.00" r="4" fill="#2877b5" opacity=".7"><title>stop_count=1; Wh/km=25.3162</title></circle><circle cx="80.00" cy="272.45" r="4" fill="#2877b5" opacity=".7"><title>stop_count=0; Wh/km=12.2931</title></circle><circle cx="80.00" cy="254.45" r="4" fill="#2877b5" opacity=".7"><title>stop_count=0; Wh/km=13.3966</title></circle><circle cx="80.00" cy="273.36" r="4" fill="#2877b5" opacity=".7"><title>stop_count=0; Wh/km=12.2374</title></circle><circle cx="80.00" cy="211.69" r="4" fill="#2877b5" opacity=".7"><title>stop_count=0; Wh/km=16.0179</title></circle><circle cx="80.00" cy="290.35" r="4" fill="#2877b5" opacity=".7"><title>stop_count=0; Wh/km=11.1955</title></circle><circle cx="80.00" cy="299.46" r="4" fill="#2877b5" opacity=".7"><title>stop_count=0; Wh/km=10.6371</title></circle><circle cx="80.00" cy="253.73" r="4" fill="#2877b5" opacity=".7"><title>stop_count=0; Wh/km=13.4405</title></circle><circle cx="80.00" cy="240.07" r="4" fill="#2877b5" opacity=".7"><title>stop_count=0; Wh/km=14.2779</title></circle><circle cx="80.00" cy="263.25" r="4" fill="#2877b5" opacity=".7"><title>stop_count=0; Wh/km=12.8571</title></circle><circle cx="80.00" cy="290.43" r="4" fill="#2877b5" opacity=".7"><title>stop_count=0; Wh/km=11.1911</title></circle><circle cx="80.00" cy="216.76" r="4" fill="#2877b5" opacity=".7"><title>stop_count=0; Wh/km=15.7067</title></circle><circle cx="80.00" cy="239.64" r="4" fill="#2877b5" opacity=".7"><title>stop_count=0; Wh/km=14.3041</title></circle><circle cx="80.00" cy="243.96" r="4" fill="#2877b5" opacity=".7"><title>stop_count=0; Wh/km=14.0396</title></circle><circle cx="80.00" cy="281.41" r="4" fill="#2877b5" opacity=".7"><title>stop_count=0; Wh/km=11.7437</title></circle><circle cx="80.00" cy="225.38" r="4" fill="#2877b5" opacity=".7"><title>stop_count=0; Wh/km=15.1785</title></circle><circle cx="80.00" cy="312.34" r="4" fill="#2877b5" opacity=".7"><title>stop_count=0; Wh/km=9.84788</title></circle><circle cx="80.00" cy="207.32" r="4" fill="#2877b5" opacity=".7"><title>stop_count=0; Wh/km=16.2855</title></circle><circle cx="80.00" cy="340.27" r="4" fill="#2877b5" opacity=".7"><title>stop_count=0; Wh/km=8.1357</title></circle><circle cx="80.00" cy="357.83" r="4" fill="#2877b5" opacity=".7"><title>stop_count=0; Wh/km=7.05906</title></circle><circle cx="80.00" cy="293.45" r="4" fill="#2877b5" opacity=".7"><title>stop_count=0; Wh/km=11.0059</title></circle><circle cx="80.00" cy="287.86" r="4" fill="#2877b5" opacity=".7"><title>stop_count=0; Wh/km=11.3487</title></circle><circle cx="135.00" cy="209.12" r="4" fill="#2877b5" opacity=".7"><title>stop_count=1; Wh/km=16.1753</title></circle><circle cx="80.00" cy="270.72" r="4" fill="#2877b5" opacity=".7"><title>stop_count=0; Wh/km=12.3991</title></circle><circle cx="80.00" cy="246.72" r="4" fill="#2877b5" opacity=".7"><title>stop_count=0; Wh/km=13.8703</title></circle><circle cx="80.00" cy="245.25" r="4" fill="#2877b5" opacity=".7"><title>stop_count=0; Wh/km=13.9602</title></circle><circle cx="80.00" cy="248.10" r="4" fill="#2877b5" opacity=".7"><title>stop_count=0; Wh/km=13.7858</title></circle><circle cx="300.00" cy="237.42" r="4" fill="#2877b5" opacity=".7"><title>stop_count=4; Wh/km=14.4403</title></circle><circle cx="850.00" cy="450.00" r="4" fill="#2877b5" opacity=".7"><title>stop_count=14; Wh/km=1.40926</title></circle><text x="370" y="510">stop_count</text><text transform="translate(18,320) rotate(-90)">Wh/km</text></svg>