<svg xmlns="http://www.w3.org/2000/svg" width="900" height="520" viewBox="0 0 900 520"><rect width="100%" height="100%" fill="white"/><style>text{font:13px sans-serif;fill:#25334a}.title{font-size:20px;font-weight:bold}</style><text x="65" y="30" class="title">Eligible-period efficiency</text><path d="M80 60V450H850" fill="none" stroke="#54657c"/><rect x="80.00" y="410.00" width="36.5" height="40.00" fill="#2877b5"><title>bin 1.409 to 2.605: 1</title></rect><rect x="118.50" y="450.00" width="36.5" height="0.00" fill="#2877b5"><title>bin 2.605 to 3.8: 0</title></rect><rect x="157.00" y="450.00" width="36.5" height="0.00" fill="#2877b5"><title>bin 3.8 to 4.995: 0</title></rect><rect x="195.50" y="450.00" width="36.5" height="0.00" fill="#2877b5"><title>bin 4.995 to 6.191: 0</title></rect><rect x="234.00" y="410.00" width="36.5" height="40.00" fill="#2877b5"><title>bin 6.191 to 7.386: 1</title></rect><rect x="272.50" y="410.00" width="36.5" height="40.00" fill="#2877b5"><title>bin 7.386 to 8.581: 1</title></rect><rect x="311.00" y="450.00" width="36.5" height="0.00" fill="#2877b5"><title>bin 8.581 to 9.777: 0</title></rect><rect x="349.50" y="370.00" width="36.5" height="80.00" fill="#2877b5"><title>bin 9.777 to 10.97: 2</title></rect><rect x="388.00" y="250.00" width="36.5" height="200.00" fill="#2877b5"><title>bin 10.97 to 12.17: 5</title></rect><rect x="426.50" y="290.00" width="36.5" height="160.00" fill="#2877b5"><title>bin 12.17 to 13.36: 4</title></rect><rect x="465.00" y="90.00" width="36.5" height="360.00" fill="#2877b5"><title>bin 13.36 to 14.56: 9</title></rect><rect x="503.50" y="370.00" width="36.5" height="80.00" fill="#2877b5"><title>bin 14.56 to 15.75: 2</title></rect><rect x="542.00" y="330.00" width="36.5" height="120.00" fill="#2877b5"><title>bin 15.75 to 16.95: 3</title></rect><rect x="580.50" y="450.00" width="36.5" height="0.00" fill="#2877b5"><title>bin 16.95 to 18.14: 0</title></rect><rect x="619.00" y="450.00" width="36.5" height="0.00" fill="#2877b5"><title>bin 18.14 to 19.34: 0</title></rect><rect x="657.50" y="450.00" width="36.5" height="0.00" fill="#2877b5"><title>bin 19.34 to 20.53: 0</title></rect><rect x="696.00" y="450.00" width="36.5" height="0.00" fill="#2877b5"><title>bin 20.53 to 21.73: 0</title></rect><rect x="734.50" y="450.00" width="36.5" height="0.00" fill="#2877b5"><title>bin 21.73 to 22.93: 0</title></rect><rect x="773.00" y="450.00" width="36.5" height="0.00" fill="#2877b5"><title>bin 22.93 to 24.12: 0</title></rect><rect x="811.50" y="410.00" width="36.5" height="40.00" fill="#2877b5"><title>bin 24.12 to 25.32: 1</title></rect><text x="80" y="475">1.409</text><text x="795" y="475">25.32</text><text x="28" y="80">9</text><text x="50" y="450">0</text><text x="370" y="510">Wh/km</text><text transform="translate(18,320) rotate(-90)">Sample count</text></svg>