<svg xmlns="http://www.w3.org/2000/svg" width="900" height="520" viewBox="0 0 900 520"><rect width="100%" height="100%" fill="white"/><style>text{font:13px sans-serif;fill:#25334a}.title{font-size:20px;font-weight:bold}</style><text x="65" y="30" class="title">gps_2: all recorded samples</text><path d="M80 60V450H850" fill="none" stroke="#54657c"/><rect x="80.00" y="90.00" width="36.5" height="360.00" fill="#2877b5"><title>bin -74.02 to -74.02: 207</title></rect><rect x="118.50" y="201.30" width="36.5" height="248.70" fill="#2877b5"><title>bin -74.02 to -74.02: 143</title></rect><rect x="157.00" y="154.35" width="36.5" height="295.65" fill="#2877b5"><title>bin -74.02 to -74.02: 170</title></rect><rect x="195.50" y="267.39" width="36.5" height="182.61" fill="#2877b5"><title>bin -74.02 to -74.02: 105</title></rect><rect x="234.00" y="298.70" width="36.5" height="151.30" fill="#2877b5"><title>bin -74.02 to -74.02: 87</title></rect><rect x="272.50" y="310.87" width="36.5" height="139.13" fill="#2877b5"><title>bin -74.02 to -74.02: 80</title></rect><rect x="311.00" y="303.91" width="36.5" height="146.09" fill="#2877b5"><title>bin -74.02 to -74.02: 84</title></rect><rect x="349.50" y="310.87" width="36.5" height="139.13" fill="#2877b5"><title>bin -74.02 to -74.02: 80</title></rect><rect x="388.00" y="312.61" width="36.5" height="137.39" fill="#2877b5"><title>bin -74.02 to -74.02: 79</title></rect><rect x="426.50" y="310.87" width="36.5" height="139.13" fill="#2877b5"><title>bin -74.02 to -74.02: 80</title></rect><rect x="465.00" y="310.87" width="36.5" height="139.13" fill="#2877b5"><title>bin -74.02 to -74.02: 80</title></rect><rect x="503.50" y="276.09" width="36.5" height="173.91" fill="#2877b5"><title>bin -74.02 to -74.02: 100</title></rect><rect x="542.00" y="291.74" width="36.5" height="158.26" fill="#2877b5"><title>bin -74.02 to -74.02: 91</title></rect><rect x="580.50" y="312.61" width="36.5" height="137.39" fill="#2877b5"><title>bin -74.02 to -74.02: 79</title></rect><rect x="619.00" y="290.00" width="36.5" height="160.00" fill="#2877b5"><title>bin -74.02 to -74.02: 92</title></rect><rect x="657.50" y="317.83" width="36.5" height="132.17" fill="#2877b5"><title>bin -74.02 to -74.02: 76</title></rect><rect x="696.00" y="255.22" width="36.5" height="194.78" fill="#2877b5"><title>bin -74.02 to -74.02: 112</title></rect><rect x="734.50" y="382.17" width="36.5" height="67.83" fill="#2877b5"><title>bin -74.02 to -74.02: 39</title></rect><rect x="773.00" y="370.00" width="36.5" height="80.00" fill="#2877b5"><title>bin -74.02 to -74.02: 46</title></rect><rect x="811.50" y="298.70" width="36.5" height="151.30" fill="#2877b5"><title>bin -74.02 to -74.02: 87</title></rect><text x="80" y="475">-74.02</text><text x="795" y="475">-74.02</text><text x="28" y="80">207</text><text x="50" y="450">0</text><text x="370" y="510">degrees (provisional)</text><text transform="translate(18,320) rotate(-90)">Sample count</text></svg>